# xmcd CD database file
#
# Track frame offsets:
#	150
#	13598
#	29569
#	45422
#	61771
#	80337
#	97398
#	113340
#	141694
#	155084
#	174236
#	191749
#
# Disc length: 2885 seconds
#
# Revision: 0
# Processed by: cddbd v1.5.2PL0 Copyright (c) Steve Scherf et al.
# Submitted via: CDex 1.51
#
DISCID=9e0b430c
DTITLE=Owen Moore - City Strets and Country Songs
DYEAR=2015
DGENRE=Country
TTITLE0=Lord, I Hope This Day is Good
TTITLE1=Fewer Threads Than These
TTITLE2=A Touch on the Rainy Side
TTITLE3=Looking for a Love
TTITLE4=If You Were a Bluebird
TTITLE5=Guitar in the Corner
TTITLE6=Don't Play That Song for Me
TTITLE7=Escaping Beauty
TTITLE8=What I Didn't Do
TTITLE9=Gebtle On My Mind
TTITLE10=I'm Alone
TTITLE11=If I Could Only Fly
EXTD=YEAR: 2015
EXTT0=
EXTT1=
EXTT2=
EXTT3=
EXTT4=
EXTT5=
EXTT6=
EXTT7=
EXTT8=
EXTT9=
EXTT10=
EXTT11=
PLAYORDER=
